HIERARCHY
ROOT Hips
{
  OFFSET 13.6774 106.653 -34.4427
  CHANNELS 6 Xposition Yposition Zposition Zrotation Xrotation Yrotation
  JOINT ToSpine
  {
    OFFSET -2.69724 7.43032 -0.144315
    CHANNELS 3 Zrotation Xrotation Yrotation
    JOINT Spine
    {
      OFFSET -0.0310711 10.7595 1.96963
      CHANNELS 3 Zrotation Xrotation Yrotation
      JOINT Spine1
      {
        OFFSET 19.9056 3.91189 0.764692
        CHANNELS 3 Zrotation Xrotation Yrotation
        JOINT Neck
        {
          OFFSET 25.9749 7.03908 -0.130764
          CHANNELS 3 Zrotation Xrotation Yrotation
          JOINT Head
          {
            OFFSET 9.52751 0.295786 -0.907742
            CHANNELS 3 Zrotation Xrotation Yrotation
            End Site
            {
              OFFSET 16.4037 0.713936 2.7358
            }
          }
        }
        JOINT LeftShoulder
        {
          OFFSET 17.7449 4.33886 11.7777
          CHANNELS 3 Zrotation Xrotation Yrotation
          JOINT LeftArm
          {
            OFFSET 0.911315 1.27913 9.80584
            CHANNELS 3 Zrotation Xrotation Yrotation
            JOINT LeftForeArm
            {
              OFFSET 28.6126 1.18197 -3.53199
              CHANNELS 3 Zrotation Xrotation Yrotation
              JOINT LeftHand
              {
                OFFSET 27.5088 0.0218783 0.327423
                CHANNELS 3 Zrotation Xrotation Yrotation
                End Site
                {
                  OFFSET 18.6038 -0.000155887 0.382096
                }
              }
            }
          }
        }
        JOINT RightShoulder
        {
          OFFSET 17.1009 2.89543 -12.2328
          CHANNELS 3 Zrotation Xrotation Yrotation
          JOINT RightArm
          {
            OFFSET 1.4228 0.178766 -10.211
            CHANNELS 3 Zrotation Xrotation Yrotation
            JOINT RightForeArm
            {
              OFFSET 28.733 1.87905 2.64907
              CHANNELS 3 Zrotation Xrotation Yrotation
              JOINT RightHand
              {
                OFFSET 27.4588 0.290562 -0.101845
                CHANNELS 3 Zrotation Xrotation Yrotation
                End Site
                {
                  OFFSET 17.8396 -0.255518 -0.000602873
                }
              }
            }
          }
        }
      }
    }
  }
  JOINT LeftUpLeg
  {
    OFFSET -5.61296 -2.22332 -10.2353
    CHANNELS 3 Zrotation Xrotation Yrotation
    JOINT LeftLeg
    {
      OFFSET 2.56703 -44.7417 -7.93097
      CHANNELS 3 Zrotation Xrotation Yrotation
      JOINT LeftFoot
      {
        OFFSET 3.16933 -46.5642 -3.96578
        CHANNELS 3 Zrotation Xrotation Yrotation
        JOINT LeftToeBase
        {
          OFFSET 0.346054 -6.02161 12.8035
          CHANNELS 3 Zrotation Xrotation Yrotation
          End Site
          {
            OFFSET 0.134235 -1.35082 5.13018
          }
        }
      }
    }
  }
  JOINT RightUpLeg
  {
    OFFSET -5.7928 -1.72406 10.6446
    CHANNELS 3 Zrotation Xrotation Yrotation
    JOINT RightLeg
    {
      OFFSET -2.57161 -44.7178 -7.85259
      CHANNELS 3 Zrotation Xrotation Yrotation
      JOINT RightFoot
      {
        OFFSET -3.10148 -46.5936 -4.03391
        CHANNELS 3 Zrotation Xrotation Yrotation
        JOINT RightToeBase
        {
          OFFSET -0.0828122 -6.13587 12.8035
          CHANNELS 3 Zrotation Xrotation Yrotation
          End Site
          {
            OFFSET -0.131328 -1.35082 5.13018
          }
        }
      }
    }
  }
}
MOTION
Frames: 21
Frame Time: 0.03333333333333333
0.0000 93.1000 0.0000 51.0000 -57.0000 -35.0000 -71.0000 0.0000 88.0000 65.0000 67.0000 21.0000 5.0000 18.0000 1.0000 -152.0000 15.0000 178.0000 -157.0000 55.0000 -170.0000 0.0000 -13.0000 -34.0000 -65.0000 45.0000 -98.0000 11.0000 23.0000 -28.0000 4.0000 -1.0000 -8.0000 -2.0000 4.0000 39.0000 -96.0000 -32.0000 58.0000 27.0000 -1.0000 88.0000 3.0000 0.0000 6.0000 -50.0000 2.0000 98.0000 -2.0000 30.0000 4.0000 2.0000 -14.0000 -2.0000 0.0000 -4.0000 4.0000 -52.0000 -2.0000 80.0000 2.0000 28.0000 7.0000 -11.0000 -15.0000 1.0000 1.0000 -3.0000 -12.0000 
0.0000 93.1000 0.0000 50.0000 -57.0000 -36.0000 -71.0000 0.0000 88.0000 62.0000 67.0000 23.0000 6.0000 18.0000 1.0000 -152.0000 14.0000 178.0000 -158.0000 53.0000 -169.0000 0.0000 -13.0000 -34.0000 -66.0000 45.0000 -97.0000 12.0000 21.0000 -31.0000 3.0000 -1.0000 -8.0000 -2.0000 4.0000 39.0000 -96.0000 -33.0000 59.0000 23.0000 -1.0000 88.0000 3.0000 0.0000 6.0000 -51.0000 2.0000 99.0000 -2.0000 30.0000 4.0000 2.0000 -13.0000 -2.0000 0.0000 -4.0000 3.0000 -52.0000 -2.0000 80.0000 2.0000 29.0000 7.0000 -9.0000 -17.0000 1.0000 1.0000 1.0000 -11.0000 
0.0000 93.1000 0.0000 49.0000 -59.0000 -38.0000 -71.0000 0.0000 88.0000 61.0000 67.0000 25.0000 7.0000 19.0000 0.0000 -151.0000 12.0000 179.0000 -157.0000 52.0000 -169.0000 0.0000 -13.0000 -34.0000 -66.0000 45.0000 -94.0000 14.0000 18.0000 -41.0000 3.0000 -1.0000 -7.0000 -2.0000 4.0000 39.0000 -96.0000 -33.0000 60.0000 16.0000 -1.0000 88.0000 2.0000 0.0000 6.0000 -53.0000 2.0000 99.0000 -2.0000 28.0000 6.0000 1.0000 -14.0000 -2.0000 0.0000 -3.0000 2.0000 -52.0000 -2.0000 81.0000 1.0000 29.0000 9.0000 -12.0000 -14.0000 1.0000 1.0000 -7.0000 -10.0000 
0.0000 93.1000 0.0000 48.0000 -59.0000 -39.0000 -71.0000 0.0000 88.0000 59.0000 67.0000 26.0000 7.0000 19.0000 0.0000 -151.0000 11.0000 179.0000 -157.0000 51.0000 -168.0000 0.0000 -12.0000 -33.0000 -63.0000 46.0000 -93.0000 17.0000 14.0000 -52.0000 3.0000 -1.0000 -7.0000 -2.0000 4.0000 39.0000 -99.0000 -32.0000 59.0000 17.0000 -2.0000 85.0000 2.0000 0.0000 6.0000 -53.0000 1.0000 99.0000 -2.0000 28.0000 7.0000 1.0000 -14.0000 -2.0000 0.0000 -3.0000 2.0000 -51.0000 -2.0000 81.0000 1.0000 30.0000 10.0000 -12.0000 -15.0000 1.0000 1.0000 -5.0000 -10.0000 
0.0000 93.1000 0.0000 46.0000 -60.0000 -42.0000 -71.0000 0.0000 88.0000 61.0000 68.0000 25.0000 7.0000 20.0000 -1.0000 -151.0000 11.0000 -180.0000 -157.0000 50.0000 -167.0000 0.0000 -12.0000 -33.0000 -60.0000 45.0000 -92.0000 18.0000 7.0000 -67.0000 2.0000 -1.0000 -6.0000 -2.0000 4.0000 38.0000 -102.0000 -34.0000 59.0000 11.0000 -2.0000 81.0000 1.0000 0.0000 6.0000 -53.0000 2.0000 99.0000 -2.0000 28.0000 8.0000 1.0000 -14.0000 -2.0000 0.0000 -3.0000 3.0000 -51.0000 -1.0000 82.0000 0.0000 31.0000 11.0000 -12.0000 -14.0000 1.0000 1.0000 -8.0000 -10.0000 
0.0000 93.1000 0.0000 45.0000 -61.0000 -43.0000 -71.0000 0.0000 88.0000 67.0000 69.0000 19.0000 5.0000 20.0000 0.0000 -150.0000 11.0000 -180.0000 -157.0000 50.0000 -165.0000 0.0000 -12.0000 -33.0000 -57.0000 43.0000 -93.0000 15.0000 3.0000 -82.0000 1.0000 -1.0000 -5.0000 -2.0000 5.0000 37.0000 -106.0000 -36.0000 60.0000 -7.0000 1.0000 76.0000 -1.0000 -1.0000 6.0000 -54.0000 1.0000 99.0000 -2.0000 28.0000 9.0000 1.0000 -14.0000 -2.0000 0.0000 -3.0000 3.0000 -51.0000 -1.0000 82.0000 0.0000 31.0000 12.0000 -11.0000 -14.0000 1.0000 1.0000 -8.0000 -9.0000 
0.0000 93.1000 0.0000 45.0000 -62.0000 -44.0000 -71.0000 0.0000 88.0000 75.0000 70.0000 8.0000 3.0000 20.0000 1.0000 -151.0000 10.0000 -179.0000 -158.0000 50.0000 -162.0000 0.0000 -12.0000 -33.0000 -55.0000 40.0000 -96.0000 11.0000 -2.0000 -93.0000 1.0000 -1.0000 -4.0000 -2.0000 5.0000 39.0000 -109.0000 -35.0000 62.0000 -17.0000 5.0000 70.0000 -2.0000 -1.0000 5.0000 -55.0000 0.0000 99.0000 -2.0000 27.0000 10.0000 0.0000 -14.0000 -2.0000 0.0000 -4.0000 4.0000 -51.0000 -2.0000 82.0000 -1.0000 32.0000 15.0000 -10.0000 -15.0000 1.0000 1.0000 -6.0000 -7.0000 
0.0000 93.1000 0.0000 36.0000 -62.0000 -52.0000 -71.0000 0.0000 88.0000 83.0000 71.0000 3.0000 0.0000 20.0000 2.0000 -151.0000 10.0000 -178.0000 -157.0000 49.0000 -161.0000 0.0000 -13.0000 -33.0000 -53.0000 37.0000 -101.0000 11.0000 -3.0000 -102.0000 0.0000 -1.0000 -2.0000 -2.0000 5.0000 40.0000 -113.0000 -33.0000 63.0000 -8.0000 4.0000 59.0000 -1.0000 -1.0000 5.0000 -49.0000 3.0000 102.0000 -3.0000 31.0000 8.0000 -1.0000 -14.0000 -2.0000 1.0000 -5.0000 6.0000 -47.0000 1.0000 85.0000 -1.0000 31.0000 14.0000 -11.0000 -12.0000 1.0000 1.0000 -8.0000 -7.0000 
0.0000 93.1000 0.0000 32.0000 -62.0000 -55.0000 -71.0000 0.0000 88.0000 96.0000 70.0000 -10.0000 -3.0000 20.0000 2.0000 -153.0000 9.0000 -178.0000 -156.0000 49.0000 -161.0000 0.0000 -14.0000 -32.0000 -52.0000 35.0000 -108.0000 11.0000 -4.0000 -107.0000 0.0000 0.0000 0.0000 -2.0000 6.0000 41.0000 -115.0000 -30.0000 67.0000 -1.0000 0.0000 53.0000 -1.0000 0.0000 4.0000 -45.0000 8.0000 108.0000 -2.0000 38.0000 0.0000 -1.0000 -11.0000 -1.0000 3.0000 -10.0000 8.0000 -46.0000 2.0000 86.0000 -1.0000 30.0000 15.0000 -9.0000 -12.0000 1.0000 1.0000 -7.0000 -6.0000 
0.0000 93.1000 0.0000 26.0000 -62.0000 -60.0000 -71.0000 0.0000 88.0000 110.0000 69.0000 -25.0000 -5.0000 20.0000 4.0000 -155.0000 9.0000 -176.0000 -154.0000 49.0000 -160.0000 0.0000 -15.0000 -31.0000 -51.0000 32.0000 -114.0000 12.0000 -5.0000 -108.0000 -1.0000 0.0000 3.0000 -2.0000 7.0000 42.0000 -112.0000 -29.0000 72.0000 -1.0000 0.0000 50.0000 0.0000 0.0000 2.0000 -37.0000 12.0000 109.0000 -3.0000 48.0000 0.0000 -2.0000 -7.0000 -1.0000 5.0000 -13.0000 9.0000 -42.0000 3.0000 88.0000 -1.0000 31.0000 14.0000 -9.0000 -11.0000 1.0000 1.0000 -8.0000 -7.0000 
0.0000 93.1000 0.0000 21.0000 -61.0000 -66.0000 -71.0000 0.0000 88.0000 123.0000 67.0000 -38.0000 -8.0000 20.0000 5.0000 -156.0000 8.0000 -176.0000 -150.0000 48.0000 -161.0000 -1.0000 -17.0000 -31.0000 -52.0000 28.0000 -119.0000 14.0000 -5.0000 -107.0000 -2.0000 -1.0000 5.0000 -3.0000 7.0000 42.0000 -109.0000 -29.0000 78.0000 -1.0000 0.0000 47.0000 0.0000 0.0000 0.0000 -29.0000 15.0000 108.0000 -4.0000 56.0000 0.0000 0.0000 -3.0000 -1.0000 6.0000 -16.0000 12.0000 -38.0000 5.0000 92.0000 0.0000 32.0000 12.0000 -9.0000 -11.0000 1.0000 2.0000 -10.0000 -13.0000 
0.0000 93.1000 0.0000 15.0000 -59.0000 -72.0000 -71.0000 0.0000 88.0000 132.0000 64.0000 -48.0000 -10.0000 20.0000 5.0000 -159.0000 7.0000 -175.0000 -148.0000 48.0000 -161.0000 -1.0000 -18.0000 -30.0000 -53.0000 25.0000 -121.0000 19.0000 -6.0000 -104.0000 -2.0000 -1.0000 6.0000 -3.0000 7.0000 41.0000 -106.0000 -29.0000 85.0000 0.0000 -1.0000 45.0000 0.0000 0.0000 0.0000 -22.0000 16.0000 107.0000 -6.0000 57.0000 -6.0000 -2.0000 -5.0000 -1.0000 7.0000 -16.0000 12.0000 -34.0000 6.0000 97.0000 1.0000 34.0000 7.0000 -10.0000 -11.0000 1.0000 2.0000 -14.0000 -16.0000 
0.0000 93.1000 0.0000 9.0000 -58.0000 -79.0000 -71.0000 0.0000 88.0000 138.0000 60.0000 -56.0000 -12.0000 20.0000 6.0000 -162.0000 6.0000 -174.0000 -146.0000 47.0000 -161.0000 -1.0000 -19.0000 -30.0000 -56.0000 22.0000 -123.0000 26.0000 -5.0000 -99.0000 -3.0000 -1.0000 7.0000 -3.0000 8.0000 41.0000 -104.0000 -30.0000 92.0000 -1.0000 0.0000 42.0000 0.0000 0.0000 0.0000 -16.0000 16.0000 106.0000 -6.0000 53.0000 -11.0000 -3.0000 -7.0000 -1.0000 7.0000 -17.0000 11.0000 -29.0000 7.0000 100.0000 1.0000 37.0000 1.0000 -11.0000 -12.0000 1.0000 2.0000 -12.0000 -19.0000 
0.0000 93.1000 0.0000 8.0000 -55.0000 -81.0000 -71.0000 0.0000 88.0000 141.0000 56.0000 -61.0000 -12.0000 20.0000 5.0000 -165.0000 6.0000 -174.0000 -143.0000 47.0000 -162.0000 -1.0000 -21.0000 -30.0000 -60.0000 19.0000 -124.0000 28.0000 -2.0000 -92.0000 -4.0000 -1.0000 7.0000 -3.0000 8.0000 41.0000 -102.0000 -30.0000 98.0000 -1.0000 0.0000 40.0000 0.0000 -1.0000 1.0000 -12.0000 14.0000 102.0000 -4.0000 47.0000 -9.0000 -3.0000 -10.0000 -1.0000 6.0000 -16.0000 12.0000 -23.0000 5.0000 98.0000 1.0000 42.0000 -1.0000 -11.0000 -13.0000 1.0000 2.0000 -10.0000 -17.0000 
0.0000 93.1000 0.0000 3.0000 -52.0000 -86.0000 -71.0000 0.0000 88.0000 144.0000 54.0000 -65.0000 -14.0000 20.0000 5.0000 -168.0000 5.0000 -174.0000 -142.0000 47.0000 -162.0000 -2.0000 -22.0000 -31.0000 -65.0000 15.0000 -124.0000 20.0000 1.0000 -85.0000 -3.0000 -1.0000 7.0000 -3.0000 8.0000 42.0000 -101.0000 -28.0000 103.0000 -1.0000 0.0000 39.0000 0.0000 -1.0000 0.0000 -5.0000 16.0000 101.0000 -3.0000 43.0000 -4.0000 -2.0000 -12.0000 -1.0000 6.0000 -15.0000 13.0000 -15.0000 5.0000 98.0000 2.0000 47.0000 -1.0000 -11.0000 -11.0000 1.0000 2.0000 -10.0000 -16.0000 
0.0000 93.1000 0.0000 1.0000 -49.0000 -88.0000 -71.0000 0.0000 88.0000 147.0000 50.0000 -68.0000 -14.0000 20.0000 4.0000 -172.0000 5.0000 -174.0000 -141.0000 47.0000 -163.0000 -2.0000 -24.0000 -31.0000 -70.0000 12.0000 -127.0000 7.0000 2.0000 -75.0000 -1.0000 0.0000 6.0000 -3.0000 9.0000 42.0000 -100.0000 -27.0000 109.0000 -4.0000 3.0000 36.0000 -1.0000 -1.0000 1.0000 1.0000 18.0000 100.0000 -3.0000 41.0000 -1.0000 -2.0000 -13.0000 -2.0000 4.0000 -13.0000 13.0000 -7.0000 5.0000 98.0000 3.0000 53.0000 0.0000 -11.0000 -12.0000 1.0000 2.0000 -11.0000 -14.0000 
0.0000 93.1000 0.0000 -3.0000 -48.0000 -90.0000 -71.0000 0.0000 88.0000 151.0000 46.0000 -70.0000 -15.0000 21.0000 3.0000 -175.0000 4.0000 -174.0000 -142.0000 47.0000 -161.0000 -2.0000 -25.0000 -31.0000 -75.0000 8.0000 -131.0000 0.0000 0.0000 -63.0000 0.0000 0.0000 5.0000 -3.0000 9.0000 42.0000 -97.0000 -23.0000 116.0000 -6.0000 7.0000 32.0000 -1.0000 -1.0000 1.0000 7.0000 21.0000 97.0000 -3.0000 45.0000 -1.0000 -4.0000 -10.0000 -1.0000 4.0000 -12.0000 10.0000 -1.0000 6.0000 95.0000 4.0000 59.0000 0.0000 -12.0000 -14.0000 1.0000 2.0000 -13.0000 -11.0000 
0.0000 93.1000 0.0000 -7.0000 -46.0000 -94.0000 -71.0000 0.0000 88.0000 155.0000 41.0000 -75.0000 -18.0000 22.0000 4.0000 -176.0000 4.0000 -174.0000 -143.0000 47.0000 -159.0000 -3.0000 -27.0000 -35.0000 -78.0000 -2.0000 -133.0000 -7.0000 -5.0000 -52.0000 0.0000 0.0000 4.0000 -4.0000 10.0000 45.0000 -94.0000 -15.0000 122.0000 -8.0000 13.0000 29.0000 -2.0000 -1.0000 1.0000 14.0000 26.0000 97.0000 -4.0000 54.0000 4.0000 -5.0000 -6.0000 -1.0000 2.0000 -7.0000 4.0000 4.0000 7.0000 93.0000 7.0000 65.0000 0.0000 -12.0000 -16.0000 1.0000 2.0000 -14.0000 -10.0000 
0.0000 93.1000 0.0000 -11.0000 -46.0000 -97.0000 -71.0000 0.0000 88.0000 157.0000 34.0000 -80.0000 -20.0000 22.0000 4.0000 -177.0000 4.0000 -176.0000 -142.0000 47.0000 -160.0000 -4.0000 -29.0000 -36.0000 -80.0000 -12.0000 -135.0000 -13.0000 -14.0000 -43.0000 0.0000 0.0000 2.0000 -4.0000 10.0000 48.0000 -91.0000 -3.0000 128.0000 -12.0000 22.0000 26.0000 -3.0000 -1.0000 0.0000 19.0000 30.0000 96.0000 -6.0000 63.0000 2.0000 -5.0000 -6.0000 -1.0000 2.0000 -9.0000 8.0000 7.0000 6.0000 92.0000 11.0000 71.0000 -1.0000 -12.0000 -17.0000 1.0000 2.0000 -14.0000 -13.0000 
0.0000 93.1000 0.0000 -15.0000 -45.0000 -100.0000 -71.0000 0.0000 88.0000 158.0000 31.0000 -82.0000 -19.0000 22.0000 4.0000 177.0000 3.0000 -173.0000 -148.0000 47.0000 -157.0000 -4.0000 -29.0000 -35.0000 -86.0000 -15.0000 -140.0000 -15.0000 -20.0000 -36.0000 -1.0000 0.0000 2.0000 -5.0000 12.0000 43.0000 -92.0000 -7.0000 134.0000 -12.0000 24.0000 25.0000 -3.0000 -1.0000 -1.0000 26.0000 34.0000 94.0000 -10.0000 70.0000 6.0000 -2.0000 -7.0000 -1.0000 2.0000 -8.0000 7.0000 11.0000 4.0000 89.0000 17.0000 76.0000 -3.0000 -14.0000 -18.0000 1.0000 2.0000 -17.0000 -11.0000 
0.0000 93.1000 0.0000 -17.9305 -42.6182 -101.9141 -71.0112 -0.0102 88.0049 158.9919 27.7185 -83.6366 -18.8925 22.9438 4.3160 174.5465 2.9175 -171.9169 -150.1182 47.3170 -154.9369 -3.9271 -29.7768 -32.8622 -91.5741 -11.8945 -144.2419 -11.2098 -21.8674 -29.8329 -3.3413 -1.0211 2.1654 -4.9002 13.2531 41.8246 -93.3518 -4.3802 139.1330 -12.7491 28.1473 22.5965 -3.0387 -0.0701 -1.4267 33.6671 37.4990 89.7472 -17.4114 77.3204 13.4850 0.1705 -10.3976 -1.1214 2.0633 -8.4178 8.2962 15.2934 2.8716 86.8180 26.0390 79.0329 -9.4119 -14.5194 -19.5553 0.8692 1.5709 -18.2679 -11.0163 
